<mxfile host="app.diagrams.net" agent="Mozilla/5.0 (Macintosh; Intel Mac OS X 10_15_7) AppleWebKit/537.36 (KHTML, like Gecko) Chrome/126.0.0.0 Safari/537.36" version="24.7.5">
  <diagram name="Page-1" id="5PzkQWW4102uohkrwK2b">
    <mxGraphModel dx="1242" dy="727" grid="1" gridSize="10" guides="1" tooltips="1" connect="1" arrows="1" fold="1" page="1" pageScale="1" pageWidth="850" pageHeight="1100" math="0" shadow="0">
      <root>
        <mxCell id="0" />
        <mxCell id="1" parent="0" />
        <mxCell id="JJQVZbuFapBC_AZpDFM2-2" value="" style="rounded=1;whiteSpace=wrap;html=1;" vertex="1" parent="1">
          <mxGeometry x="360" y="420" width="120" height="60" as="geometry" />
        </mxCell>
        <mxCell id="JJQVZbuFapBC_AZpDFM2-3" value="&lt;span style=&quot;box-sizing: inherit; color: mediumblue; font-family: monospace, monospace; font-size: 15px; background-color: rgb(231, 233, 235);&quot; class=&quot;sqlkeywordcolor&quot;&gt;INSERT&lt;/span&gt;&lt;span style=&quot;font-family: monospace, monospace; font-size: 15px; background-color: rgb(231, 233, 235);&quot;&gt;&amp;nbsp;&lt;/span&gt;&lt;span style=&quot;box-sizing: inherit; color: mediumblue; font-family: monospace, monospace; font-size: 15px; background-color: rgb(231, 233, 235);&quot; class=&quot;sqlkeywordcolor&quot;&gt;INTO&lt;/span&gt;&lt;span style=&quot;font-family: monospace, monospace; font-size: 15px; background-color: rgb(231, 233, 235);&quot;&gt;&amp;nbsp;&lt;/span&gt;&lt;em style=&quot;box-sizing: inherit; font-family: monospace, monospace; font-size: 15px; background-color: rgb(231, 233, 235);&quot;&gt;table_name&lt;/em&gt;&lt;span style=&quot;font-family: monospace, monospace; font-size: 15px; background-color: rgb(231, 233, 235);&quot;&gt;&amp;nbsp;(&lt;/span&gt;&lt;em style=&quot;box-sizing: inherit; font-family: monospace, monospace; font-size: 15px; background-color: rgb(231, 233, 235);&quot;&gt;column1&lt;/em&gt;&lt;span style=&quot;font-family: monospace, monospace; font-size: 15px; background-color: rgb(231, 233, 235);&quot;&gt;,&lt;/span&gt;&lt;em style=&quot;box-sizing: inherit; font-family: monospace, monospace; font-size: 15px; background-color: rgb(231, 233, 235);&quot;&gt;&amp;nbsp;column2&lt;/em&gt;&lt;span style=&quot;font-family: monospace, monospace; font-size: 15px; background-color: rgb(231, 233, 235);&quot;&gt;,&lt;/span&gt;&lt;em style=&quot;box-sizing: inherit; font-family: monospace, monospace; font-size: 15px; background-color: rgb(231, 233, 235);&quot;&gt;&amp;nbsp;column3&lt;/em&gt;&lt;span style=&quot;font-family: monospace, monospace; font-size: 15px; background-color: rgb(231, 233, 235);&quot;&gt;, ...)&lt;/span&gt;&lt;br style=&quot;box-sizing: inherit; font-family: monospace, monospace; font-size: 15px; background-color: rgb(231, 233, 235);&quot;&gt;&lt;span style=&quot;box-sizing: inherit; color: mediumblue; font-family: monospace, monospace; font-size: 15px; background-color: rgb(231, 233, 235);&quot; class=&quot;sqlkeywordcolor&quot;&gt;VALUES&lt;/span&gt;&lt;span style=&quot;font-family: monospace, monospace; font-size: 15px; background-color: rgb(231, 233, 235);&quot;&gt;&amp;nbsp;(&lt;/span&gt;&lt;em style=&quot;box-sizing: inherit; font-family: monospace, monospace; font-size: 15px; background-color: rgb(231, 233, 235);&quot;&gt;value1&lt;/em&gt;&lt;span style=&quot;font-family: monospace, monospace; font-size: 15px; background-color: rgb(231, 233, 235);&quot;&gt;,&lt;/span&gt;&lt;em style=&quot;box-sizing: inherit; font-family: monospace, monospace; font-size: 15px; background-color: rgb(231, 233, 235);&quot;&gt;&amp;nbsp;value2&lt;/em&gt;&lt;span style=&quot;font-family: monospace, monospace; font-size: 15px; background-color: rgb(231, 233, 235);&quot;&gt;,&lt;/span&gt;&lt;em style=&quot;box-sizing: inherit; font-family: monospace, monospace; font-size: 15px; background-color: rgb(231, 233, 235);&quot;&gt;&amp;nbsp;value3&lt;/em&gt;&lt;span style=&quot;font-family: monospace, monospace; font-size: 15px; background-color: rgb(231, 233, 235);&quot;&gt;, ...);&lt;/span&gt;" style="text;html=1;align=left;verticalAlign=middle;whiteSpace=wrap;rounded=0;" vertex="1" parent="1">
          <mxGeometry x="130" y="80" width="520" height="50" as="geometry" />
        </mxCell>
        <mxCell id="JJQVZbuFapBC_AZpDFM2-4" value="&lt;span class=&quot;sqlkeywordcolor&quot; style=&quot;box-sizing: inherit; color: mediumblue; font-family: monospace, monospace; font-size: 15px; font-style: normal; font-variant-ligatures: normal; font-variant-caps: normal; font-weight: 400; letter-spacing: normal; orphans: 2; text-align: start; text-indent: 0px; text-transform: none; widows: 2; word-spacing: 0px; -webkit-text-stroke-width: 0px; white-space: normal; background-color: rgb(231, 233, 235); text-decoration-thickness: initial; text-decoration-style: initial; text-decoration-color: initial;&quot;&gt;INSERT&lt;/span&gt;&lt;span style=&quot;color: rgb(0, 0, 0); font-family: monospace, monospace; font-size: 15px; font-style: normal; font-variant-ligatures: normal; font-variant-caps: normal; font-weight: 400; letter-spacing: normal; orphans: 2; text-align: start; text-indent: 0px; text-transform: none; widows: 2; word-spacing: 0px; -webkit-text-stroke-width: 0px; white-space: normal; background-color: rgb(231, 233, 235); text-decoration-thickness: initial; text-decoration-style: initial; text-decoration-color: initial; display: inline !important; float: none;&quot;&gt;&lt;span&gt;&amp;nbsp;&lt;/span&gt;&lt;/span&gt;&lt;span class=&quot;sqlkeywordcolor&quot; style=&quot;box-sizing: inherit; color: mediumblue; font-family: monospace, monospace; font-size: 15px; font-style: normal; font-variant-ligatures: normal; font-variant-caps: normal; font-weight: 400; letter-spacing: normal; orphans: 2; text-align: start; text-indent: 0px; text-transform: none; widows: 2; word-spacing: 0px; -webkit-text-stroke-width: 0px; white-space: normal; background-color: rgb(231, 233, 235); text-decoration-thickness: initial; text-decoration-style: initial; text-decoration-color: initial;&quot;&gt;INTO&lt;/span&gt;&lt;span style=&quot;color: rgb(0, 0, 0); font-family: monospace, monospace; font-size: 15px; font-style: normal; font-variant-ligatures: normal; font-variant-caps: normal; font-weight: 400; letter-spacing: normal; orphans: 2; text-align: start; text-indent: 0px; text-transform: none; widows: 2; word-spacing: 0px; -webkit-text-stroke-width: 0px; white-space: normal; background-color: rgb(231, 233, 235); text-decoration-thickness: initial; text-decoration-style: initial; text-decoration-color: initial; display: inline !important; float: none;&quot;&gt;&lt;span&gt;&amp;nbsp;&lt;/span&gt;&lt;/span&gt;&lt;em style=&quot;box-sizing: inherit; color: rgb(0, 0, 0); font-family: monospace, monospace; font-size: 15px; font-variant-ligatures: normal; font-variant-caps: normal; font-weight: 400; letter-spacing: normal; orphans: 2; text-align: start; text-indent: 0px; text-transform: none; widows: 2; word-spacing: 0px; -webkit-text-stroke-width: 0px; white-space: normal; background-color: rgb(231, 233, 235); text-decoration-thickness: initial; text-decoration-style: initial; text-decoration-color: initial;&quot;&gt;table_name&lt;/em&gt;&lt;br style=&quot;box-sizing: inherit; color: rgb(0, 0, 0); font-family: monospace, monospace; font-size: 15px; font-style: normal; font-variant-ligatures: normal; font-variant-caps: normal; font-weight: 400; letter-spacing: normal; orphans: 2; text-align: start; text-indent: 0px; text-transform: none; widows: 2; word-spacing: 0px; -webkit-text-stroke-width: 0px; white-space: normal; background-color: rgb(231, 233, 235); text-decoration-thickness: initial; text-decoration-style: initial; text-decoration-color: initial;&quot;&gt;&lt;span class=&quot;sqlkeywordcolor&quot; style=&quot;box-sizing: inherit; color: mediumblue; font-family: monospace, monospace; font-size: 15px; font-style: normal; font-variant-ligatures: normal; font-variant-caps: normal; font-weight: 400; letter-spacing: normal; orphans: 2; text-align: start; text-indent: 0px; text-transform: none; widows: 2; word-spacing: 0px; -webkit-text-stroke-width: 0px; white-space: normal; background-color: rgb(231, 233, 235); text-decoration-thickness: initial; text-decoration-style: initial; text-decoration-color: initial;&quot;&gt;VALUES&lt;/span&gt;&lt;span style=&quot;color: rgb(0, 0, 0); font-family: monospace, monospace; font-size: 15px; font-style: normal; font-variant-ligatures: normal; font-variant-caps: normal; font-weight: 400; letter-spacing: normal; orphans: 2; text-align: start; text-indent: 0px; text-transform: none; widows: 2; word-spacing: 0px; -webkit-text-stroke-width: 0px; white-space: normal; background-color: rgb(231, 233, 235); text-decoration-thickness: initial; text-decoration-style: initial; text-decoration-color: initial; display: inline !important; float: none;&quot;&gt;&lt;span&gt;&amp;nbsp;&lt;/span&gt;(&lt;/span&gt;&lt;em style=&quot;box-sizing: inherit; color: rgb(0, 0, 0); font-family: monospace, monospace; font-size: 15px; font-variant-ligatures: normal; font-variant-caps: normal; font-weight: 400; letter-spacing: normal; orphans: 2; text-align: start; text-indent: 0px; text-transform: none; widows: 2; word-spacing: 0px; -webkit-text-stroke-width: 0px; white-space: normal; background-color: rgb(231, 233, 235); text-decoration-thickness: initial; text-decoration-style: initial; text-decoration-color: initial;&quot;&gt;value1&lt;/em&gt;&lt;span style=&quot;color: rgb(0, 0, 0); font-family: monospace, monospace; font-size: 15px; font-style: normal; font-variant-ligatures: normal; font-variant-caps: normal; font-weight: 400; letter-spacing: normal; orphans: 2; text-align: start; text-indent: 0px; text-transform: none; widows: 2; word-spacing: 0px; -webkit-text-stroke-width: 0px; white-space: normal; background-color: rgb(231, 233, 235); text-decoration-thickness: initial; text-decoration-style: initial; text-decoration-color: initial; display: inline !important; float: none;&quot;&gt;,&lt;/span&gt;&lt;em style=&quot;box-sizing: inherit; color: rgb(0, 0, 0); font-family: monospace, monospace; font-size: 15px; font-variant-ligatures: normal; font-variant-caps: normal; font-weight: 400; letter-spacing: normal; orphans: 2; text-align: start; text-indent: 0px; text-transform: none; widows: 2; word-spacing: 0px; -webkit-text-stroke-width: 0px; white-space: normal; background-color: rgb(231, 233, 235); text-decoration-thickness: initial; text-decoration-style: initial; text-decoration-color: initial;&quot;&gt;&lt;span&gt;&amp;nbsp;&lt;/span&gt;value2&lt;/em&gt;&lt;span style=&quot;color: rgb(0, 0, 0); font-family: monospace, monospace; font-size: 15px; font-style: normal; font-variant-ligatures: normal; font-variant-caps: normal; font-weight: 400; letter-spacing: normal; orphans: 2; text-align: start; text-indent: 0px; text-transform: none; widows: 2; word-spacing: 0px; -webkit-text-stroke-width: 0px; white-space: normal; background-color: rgb(231, 233, 235); text-decoration-thickness: initial; text-decoration-style: initial; text-decoration-color: initial; display: inline !important; float: none;&quot;&gt;,&lt;/span&gt;&lt;em style=&quot;box-sizing: inherit; color: rgb(0, 0, 0); font-family: monospace, monospace; font-size: 15px; font-variant-ligatures: normal; font-variant-caps: normal; font-weight: 400; letter-spacing: normal; orphans: 2; text-align: start; text-indent: 0px; text-transform: none; widows: 2; word-spacing: 0px; -webkit-text-stroke-width: 0px; white-space: normal; background-color: rgb(231, 233, 235); text-decoration-thickness: initial; text-decoration-style: initial; text-decoration-color: initial;&quot;&gt;&lt;span&gt;&amp;nbsp;&lt;/span&gt;value3&lt;/em&gt;&lt;span style=&quot;color: rgb(0, 0, 0); font-family: monospace, monospace; font-size: 15px; font-style: normal; font-variant-ligatures: normal; font-variant-caps: normal; font-weight: 400; letter-spacing: normal; orphans: 2; text-align: start; text-indent: 0px; text-transform: none; widows: 2; word-spacing: 0px; -webkit-text-stroke-width: 0px; white-space: normal; background-color: rgb(231, 233, 235); text-decoration-thickness: initial; text-decoration-style: initial; text-decoration-color: initial; display: inline !important; float: none;&quot;&gt;, ...);&lt;/span&gt;" style="text;whiteSpace=wrap;html=1;" vertex="1" parent="1">
          <mxGeometry x="130" y="150" width="370" height="60" as="geometry" />
        </mxCell>
        <mxCell id="JJQVZbuFapBC_AZpDFM2-5" value="&lt;span class=&quot;sqlkeywordcolor&quot; style=&quot;box-sizing: inherit; color: mediumblue; font-family: Consolas, Menlo, &amp;quot;courier new&amp;quot;, monospace; font-size: 15px; font-style: normal; font-variant-ligatures: normal; font-variant-caps: normal; font-weight: 400; letter-spacing: normal; orphans: 2; text-align: start; text-indent: 0px; text-transform: none; widows: 2; word-spacing: 0px; -webkit-text-stroke-width: 0px; white-space: normal; background-color: rgb(255, 255, 255); text-decoration-thickness: initial; text-decoration-style: initial; text-decoration-color: initial;&quot;&gt;INSERT&lt;/span&gt;&lt;span style=&quot;color: rgb(0, 0, 0); font-family: Consolas, Menlo, &amp;quot;courier new&amp;quot;, monospace; font-size: 15px; font-style: normal; font-variant-ligatures: normal; font-variant-caps: normal; font-weight: 400; letter-spacing: normal; orphans: 2; text-align: start; text-indent: 0px; text-transform: none; widows: 2; word-spacing: 0px; -webkit-text-stroke-width: 0px; white-space: normal; background-color: rgb(255, 255, 255); text-decoration-thickness: initial; text-decoration-style: initial; text-decoration-color: initial; display: inline !important; float: none;&quot;&gt;&lt;span&gt;&amp;nbsp;&lt;/span&gt;&lt;/span&gt;&lt;span class=&quot;sqlkeywordcolor&quot; style=&quot;box-sizing: inherit; color: mediumblue; font-family: Consolas, Menlo, &amp;quot;courier new&amp;quot;, monospace; font-size: 15px; font-style: normal; font-variant-ligatures: normal; font-variant-caps: normal; font-weight: 400; letter-spacing: normal; orphans: 2; text-align: start; text-indent: 0px; text-transform: none; widows: 2; word-spacing: 0px; -webkit-text-stroke-width: 0px; white-space: normal; background-color: rgb(255, 255, 255); text-decoration-thickness: initial; text-decoration-style: initial; text-decoration-color: initial;&quot;&gt;INTO&lt;/span&gt;&lt;span style=&quot;color: rgb(0, 0, 0); font-family: Consolas, Menlo, &amp;quot;courier new&amp;quot;, monospace; font-size: 15px; font-style: normal; font-variant-ligatures: normal; font-variant-caps: normal; font-weight: 400; letter-spacing: normal; orphans: 2; text-align: start; text-indent: 0px; text-transform: none; widows: 2; word-spacing: 0px; -webkit-text-stroke-width: 0px; white-space: normal; background-color: rgb(255, 255, 255); text-decoration-thickness: initial; text-decoration-style: initial; text-decoration-color: initial; display: inline !important; float: none;&quot;&gt;&lt;span&gt;&amp;nbsp;&lt;/span&gt;Customers (CustomerName, ContactName, Address, City, PostalCode, Country)&lt;/span&gt;&lt;br style=&quot;box-sizing: inherit; color: rgb(0, 0, 0); font-family: Consolas, Menlo, &amp;quot;courier new&amp;quot;, monospace; font-size: 15px; font-style: normal; font-variant-ligatures: normal; font-variant-caps: normal; font-weight: 400; letter-spacing: normal; orphans: 2; text-align: start; text-indent: 0px; text-transform: none; widows: 2; word-spacing: 0px; -webkit-text-stroke-width: 0px; white-space: normal; background-color: rgb(255, 255, 255); text-decoration-thickness: initial; text-decoration-style: initial; text-decoration-color: initial;&quot;&gt;&lt;span class=&quot;sqlkeywordcolor&quot; style=&quot;box-sizing: inherit; color: mediumblue; font-family: Consolas, Menlo, &amp;quot;courier new&amp;quot;, monospace; font-size: 15px; font-style: normal; font-variant-ligatures: normal; font-variant-caps: normal; font-weight: 400; letter-spacing: normal; orphans: 2; text-align: start; text-indent: 0px; text-transform: none; widows: 2; word-spacing: 0px; -webkit-text-stroke-width: 0px; white-space: normal; background-color: rgb(255, 255, 255); text-decoration-thickness: initial; text-decoration-style: initial; text-decoration-color: initial;&quot;&gt;VALUES&lt;/span&gt;&lt;br style=&quot;box-sizing: inherit; color: rgb(0, 0, 0); font-family: Consolas, Menlo, &amp;quot;courier new&amp;quot;, monospace; font-size: 15px; font-style: normal; font-variant-ligatures: normal; font-variant-caps: normal; font-weight: 400; letter-spacing: normal; orphans: 2; text-align: start; text-indent: 0px; text-transform: none; widows: 2; word-spacing: 0px; -webkit-text-stroke-width: 0px; white-space: normal; background-color: rgb(255, 255, 255); text-decoration-thickness: initial; text-decoration-style: initial; text-decoration-color: initial;&quot;&gt;&lt;span class=&quot;sqlnumbercolor&quot; style=&quot;box-sizing: inherit; color: red; font-family: Consolas, Menlo, &amp;quot;courier new&amp;quot;, monospace; font-size: 15px; font-style: normal; font-variant-ligatures: normal; font-variant-caps: normal; font-weight: 400; letter-spacing: normal; orphans: 2; text-align: start; text-indent: 0px; text-transform: none; widows: 2; word-spacing: 0px; -webkit-text-stroke-width: 0px; white-space: normal; background-color: rgb(255, 255, 255); text-decoration-thickness: initial; text-decoration-style: initial; text-decoration-color: initial;&quot;&gt;&lt;/span&gt;&lt;span style=&quot;color: rgb(0, 0, 0); font-family: Consolas, Menlo, &amp;quot;courier new&amp;quot;, monospace; font-size: 15px; font-style: normal; font-variant-ligatures: normal; font-variant-caps: normal; font-weight: 400; letter-spacing: normal; orphans: 2; text-align: start; text-indent: 0px; text-transform: none; widows: 2; word-spacing: 0px; -webkit-text-stroke-width: 0px; white-space: normal; background-color: rgb(255, 255, 255); text-decoration-thickness: initial; text-decoration-style: initial; text-decoration-color: initial; display: inline !important; float: none;&quot;&gt;(&lt;/span&gt;&lt;span class=&quot;sqlstringcolor&quot; style=&quot;box-sizing: inherit; color: brown; font-family: Consolas, Menlo, &amp;quot;courier new&amp;quot;, monospace; font-size: 15px; font-style: normal; font-variant-ligatures: normal; font-variant-caps: normal; font-weight: 400; letter-spacing: normal; orphans: 2; text-align: start; text-indent: 0px; text-transform: none; widows: 2; word-spacing: 0px; -webkit-text-stroke-width: 0px; white-space: normal; background-color: rgb(255, 255, 255); text-decoration-thickness: initial; text-decoration-style: initial; text-decoration-color: initial;&quot;&gt;&#39;Cardinal&#39;&lt;/span&gt;&lt;span style=&quot;color: rgb(0, 0, 0); font-family: Consolas, Menlo, &amp;quot;courier new&amp;quot;, monospace; font-size: 15px; font-style: normal; font-variant-ligatures: normal; font-variant-caps: normal; font-weight: 400; letter-spacing: normal; orphans: 2; text-align: start; text-indent: 0px; text-transform: none; widows: 2; word-spacing: 0px; -webkit-text-stroke-width: 0px; white-space: normal; background-color: rgb(255, 255, 255); text-decoration-thickness: initial; text-decoration-style: initial; text-decoration-color: initial; display: inline !important; float: none;&quot;&gt;,&lt;span&gt;&amp;nbsp;&lt;/span&gt;&lt;/span&gt;&lt;span class=&quot;sqlstringcolor&quot; style=&quot;box-sizing: inherit; color: brown; font-family: Consolas, Menlo, &amp;quot;courier new&amp;quot;, monospace; font-size: 15px; font-style: normal; font-variant-ligatures: normal; font-variant-caps: normal; font-weight: 400; letter-spacing: normal; orphans: 2; text-align: start; text-indent: 0px; text-transform: none; widows: 2; word-spacing: 0px; -webkit-text-stroke-width: 0px; white-space: normal; background-color: rgb(255, 255, 255); text-decoration-thickness: initial; text-decoration-style: initial; text-decoration-color: initial;&quot;&gt;&#39;Tom B. Erichsen&#39;&lt;/span&gt;&lt;span style=&quot;color: rgb(0, 0, 0); font-family: Consolas, Menlo, &amp;quot;courier new&amp;quot;, monospace; font-size: 15px; font-style: normal; font-variant-ligatures: normal; font-variant-caps: normal; font-weight: 400; letter-spacing: normal; orphans: 2; text-align: start; text-indent: 0px; text-transform: none; widows: 2; word-spacing: 0px; -webkit-text-stroke-width: 0px; white-space: normal; background-color: rgb(255, 255, 255); text-decoration-thickness: initial; text-decoration-style: initial; text-decoration-color: initial; display: inline !important; float: none;&quot;&gt;,&lt;span&gt;&amp;nbsp;&lt;/span&gt;&lt;/span&gt;&lt;span class=&quot;sqlstringcolor&quot; style=&quot;box-sizing: inherit; color: brown; font-family: Consolas, Menlo, &amp;quot;courier new&amp;quot;, monospace; font-size: 15px; font-style: normal; font-variant-ligatures: normal; font-variant-caps: normal; font-weight: 400; letter-spacing: normal; orphans: 2; text-align: start; text-indent: 0px; text-transform: none; widows: 2; word-spacing: 0px; -webkit-text-stroke-width: 0px; white-space: normal; background-color: rgb(255, 255, 255); text-decoration-thickness: initial; text-decoration-style: initial; text-decoration-color: initial;&quot;&gt;&#39;Skagen 21&#39;&lt;/span&gt;&lt;span style=&quot;color: rgb(0, 0, 0); font-family: Consolas, Menlo, &amp;quot;courier new&amp;quot;, monospace; font-size: 15px; font-style: normal; font-variant-ligatures: normal; font-variant-caps: normal; font-weight: 400; letter-spacing: normal; orphans: 2; text-align: start; text-indent: 0px; text-transform: none; widows: 2; word-spacing: 0px; -webkit-text-stroke-width: 0px; white-space: normal; background-color: rgb(255, 255, 255); text-decoration-thickness: initial; text-decoration-style: initial; text-decoration-color: initial; display: inline !important; float: none;&quot;&gt;,&lt;span&gt;&amp;nbsp;&lt;/span&gt;&lt;/span&gt;&lt;span class=&quot;sqlstringcolor&quot; style=&quot;box-sizing: inherit; color: brown; font-family: Consolas, Menlo, &amp;quot;courier new&amp;quot;, monospace; font-size: 15px; font-style: normal; font-variant-ligatures: normal; font-variant-caps: normal; font-weight: 400; letter-spacing: normal; orphans: 2; text-align: start; text-indent: 0px; text-transform: none; widows: 2; word-spacing: 0px; -webkit-text-stroke-width: 0px; white-space: normal; background-color: rgb(255, 255, 255); text-decoration-thickness: initial; text-decoration-style: initial; text-decoration-color: initial;&quot;&gt;&#39;Stavanger&#39;&lt;/span&gt;&lt;span style=&quot;color: rgb(0, 0, 0); font-family: Consolas, Menlo, &amp;quot;courier new&amp;quot;, monospace; font-size: 15px; font-style: normal; font-variant-ligatures: normal; font-variant-caps: normal; font-weight: 400; letter-spacing: normal; orphans: 2; text-align: start; text-indent: 0px; text-transform: none; widows: 2; word-spacing: 0px; -webkit-text-stroke-width: 0px; white-space: normal; background-color: rgb(255, 255, 255); text-decoration-thickness: initial; text-decoration-style: initial; text-decoration-color: initial; display: inline !important; float: none;&quot;&gt;,&lt;span&gt;&amp;nbsp;&lt;/span&gt;&lt;/span&gt;&lt;span class=&quot;sqlstringcolor&quot; style=&quot;box-sizing: inherit; color: brown; font-family: Consolas, Menlo, &amp;quot;courier new&amp;quot;, monospace; font-size: 15px; font-style: normal; font-variant-ligatures: normal; font-variant-caps: normal; font-weight: 400; letter-spacing: normal; orphans: 2; text-align: start; text-indent: 0px; text-transform: none; widows: 2; word-spacing: 0px; -webkit-text-stroke-width: 0px; white-space: normal; background-color: rgb(255, 255, 255); text-decoration-thickness: initial; text-decoration-style: initial; text-decoration-color: initial;&quot;&gt;&#39;4006&#39;&lt;/span&gt;&lt;span style=&quot;color: rgb(0, 0, 0); font-family: Consolas, Menlo, &amp;quot;courier new&amp;quot;, monospace; font-size: 15px; font-style: normal; font-variant-ligatures: normal; font-variant-caps: normal; font-weight: 400; letter-spacing: normal; orphans: 2; text-align: start; text-indent: 0px; text-transform: none; widows: 2; word-spacing: 0px; -webkit-text-stroke-width: 0px; white-space: normal; background-color: rgb(255, 255, 255); text-decoration-thickness: initial; text-decoration-style: initial; text-decoration-color: initial; display: inline !important; float: none;&quot;&gt;,&lt;span&gt;&amp;nbsp;&lt;/span&gt;&lt;/span&gt;&lt;span class=&quot;sqlstringcolor&quot; style=&quot;box-sizing: inherit; color: brown; font-family: Consolas, Menlo, &amp;quot;courier new&amp;quot;, monospace; font-size: 15px; font-style: normal; font-variant-ligatures: normal; font-variant-caps: normal; font-weight: 400; letter-spacing: normal; orphans: 2; text-align: start; text-indent: 0px; text-transform: none; widows: 2; word-spacing: 0px; -webkit-text-stroke-width: 0px; white-space: normal; background-color: rgb(255, 255, 255); text-decoration-thickness: initial; text-decoration-style: initial; text-decoration-color: initial;&quot;&gt;&#39;Norway&#39;&lt;/span&gt;&lt;span style=&quot;color: rgb(0, 0, 0); font-family: Consolas, Menlo, &amp;quot;courier new&amp;quot;, monospace; font-size: 15px; font-style: normal; font-variant-ligatures: normal; font-variant-caps: normal; font-weight: 400; letter-spacing: normal; orphans: 2; text-align: start; text-indent: 0px; text-transform: none; widows: 2; word-spacing: 0px; -webkit-text-stroke-width: 0px; white-space: normal; background-color: rgb(255, 255, 255); text-decoration-thickness: initial; text-decoration-style: initial; text-decoration-color: initial; display: inline !important; float: none;&quot;&gt;),&lt;/span&gt;&lt;br style=&quot;box-sizing: inherit; color: rgb(0, 0, 0); font-family: Consolas, Menlo, &amp;quot;courier new&amp;quot;, monospace; font-size: 15px; font-style: normal; font-variant-ligatures: normal; font-variant-caps: normal; font-weight: 400; letter-spacing: normal; orphans: 2; text-align: start; text-indent: 0px; text-transform: none; widows: 2; word-spacing: 0px; -webkit-text-stroke-width: 0px; white-space: normal; background-color: rgb(255, 255, 255); text-decoration-thickness: initial; text-decoration-style: initial; text-decoration-color: initial;&quot;&gt;&lt;span class=&quot;sqlnumbercolor&quot; style=&quot;box-sizing: inherit; color: red; font-family: Consolas, Menlo, &amp;quot;courier new&amp;quot;, monospace; font-size: 15px; font-style: normal; font-variant-ligatures: normal; font-variant-caps: normal; font-weight: 400; letter-spacing: normal; orphans: 2; text-align: start; text-indent: 0px; text-transform: none; widows: 2; word-spacing: 0px; -webkit-text-stroke-width: 0px; white-space: normal; background-color: rgb(255, 255, 255); text-decoration-thickness: initial; text-decoration-style: initial; text-decoration-color: initial;&quot;&gt;&lt;/span&gt;&lt;span style=&quot;color: rgb(0, 0, 0); font-family: Consolas, Menlo, &amp;quot;courier new&amp;quot;, monospace; font-size: 15px; font-style: normal; font-variant-ligatures: normal; font-variant-caps: normal; font-weight: 400; letter-spacing: normal; orphans: 2; text-align: start; text-indent: 0px; text-transform: none; widows: 2; word-spacing: 0px; -webkit-text-stroke-width: 0px; white-space: normal; background-color: rgb(255, 255, 255); text-decoration-thickness: initial; text-decoration-style: initial; text-decoration-color: initial; display: inline !important; float: none;&quot;&gt;(&lt;/span&gt;&lt;span class=&quot;sqlstringcolor&quot; style=&quot;box-sizing: inherit; color: brown; font-family: Consolas, Menlo, &amp;quot;courier new&amp;quot;, monospace; font-size: 15px; font-style: normal; font-variant-ligatures: normal; font-variant-caps: normal; font-weight: 400; letter-spacing: normal; orphans: 2; text-align: start; text-indent: 0px; text-transform: none; widows: 2; word-spacing: 0px; -webkit-text-stroke-width: 0px; white-space: normal; background-color: rgb(255, 255, 255); text-decoration-thickness: initial; text-decoration-style: initial; text-decoration-color: initial;&quot;&gt;&#39;Greasy Burger&#39;&lt;/span&gt;&lt;span style=&quot;color: rgb(0, 0, 0); font-family: Consolas, Menlo, &amp;quot;courier new&amp;quot;, monospace; font-size: 15px; font-style: normal; font-variant-ligatures: normal; font-variant-caps: normal; font-weight: 400; letter-spacing: normal; orphans: 2; text-align: start; text-indent: 0px; text-transform: none; widows: 2; word-spacing: 0px; -webkit-text-stroke-width: 0px; white-space: normal; background-color: rgb(255, 255, 255); text-decoration-thickness: initial; text-decoration-style: initial; text-decoration-color: initial; display: inline !important; float: none;&quot;&gt;,&lt;span&gt;&amp;nbsp;&lt;/span&gt;&lt;/span&gt;&lt;span class=&quot;sqlstringcolor&quot; style=&quot;box-sizing: inherit; color: brown; font-family: Consolas, Menlo, &amp;quot;courier new&amp;quot;, monospace; font-size: 15px; font-style: normal; font-variant-ligatures: normal; font-variant-caps: normal; font-weight: 400; letter-spacing: normal; orphans: 2; text-align: start; text-indent: 0px; text-transform: none; widows: 2; word-spacing: 0px; -webkit-text-stroke-width: 0px; white-space: normal; background-color: rgb(255, 255, 255); text-decoration-thickness: initial; text-decoration-style: initial; text-decoration-color: initial;&quot;&gt;&#39;Per Olsen&#39;&lt;/span&gt;&lt;span style=&quot;color: rgb(0, 0, 0); font-family: Consolas, Menlo, &amp;quot;courier new&amp;quot;, monospace; font-size: 15px; font-style: normal; font-variant-ligatures: normal; font-variant-caps: normal; font-weight: 400; letter-spacing: normal; orphans: 2; text-align: start; text-indent: 0px; text-transform: none; widows: 2; word-spacing: 0px; -webkit-text-stroke-width: 0px; white-space: normal; background-color: rgb(255, 255, 255); text-decoration-thickness: initial; text-decoration-style: initial; text-decoration-color: initial; display: inline !important; float: none;&quot;&gt;,&lt;span&gt;&amp;nbsp;&lt;/span&gt;&lt;/span&gt;&lt;span class=&quot;sqlstringcolor&quot; style=&quot;box-sizing: inherit; color: brown; font-family: Consolas, Menlo, &amp;quot;courier new&amp;quot;, monospace; font-size: 15px; font-style: normal; font-variant-ligatures: normal; font-variant-caps: normal; font-weight: 400; letter-spacing: normal; orphans: 2; text-align: start; text-indent: 0px; text-transform: none; widows: 2; word-spacing: 0px; -webkit-text-stroke-width: 0px; white-space: normal; background-color: rgb(255, 255, 255); text-decoration-thickness: initial; text-decoration-style: initial; text-decoration-color: initial;&quot;&gt;&#39;Gateveien 15&#39;&lt;/span&gt;&lt;span style=&quot;color: rgb(0, 0, 0); font-family: Consolas, Menlo, &amp;quot;courier new&amp;quot;, monospace; font-size: 15px; font-style: normal; font-variant-ligatures: normal; font-variant-caps: normal; font-weight: 400; letter-spacing: normal; orphans: 2; text-align: start; text-indent: 0px; text-transform: none; widows: 2; word-spacing: 0px; -webkit-text-stroke-width: 0px; white-space: normal; background-color: rgb(255, 255, 255); text-decoration-thickness: initial; text-decoration-style: initial; text-decoration-color: initial; display: inline !important; float: none;&quot;&gt;,&lt;span&gt;&amp;nbsp;&lt;/span&gt;&lt;/span&gt;&lt;span class=&quot;sqlstringcolor&quot; style=&quot;box-sizing: inherit; color: brown; font-family: Consolas, Menlo, &amp;quot;courier new&amp;quot;, monospace; font-size: 15px; font-style: normal; font-variant-ligatures: normal; font-variant-caps: normal; font-weight: 400; letter-spacing: normal; orphans: 2; text-align: start; text-indent: 0px; text-transform: none; widows: 2; word-spacing: 0px; -webkit-text-stroke-width: 0px; white-space: normal; background-color: rgb(255, 255, 255); text-decoration-thickness: initial; text-decoration-style: initial; text-decoration-color: initial;&quot;&gt;&#39;Sandnes&#39;&lt;/span&gt;&lt;span style=&quot;color: rgb(0, 0, 0); font-family: Consolas, Menlo, &amp;quot;courier new&amp;quot;, monospace; font-size: 15px; font-style: normal; font-variant-ligatures: normal; font-variant-caps: normal; font-weight: 400; letter-spacing: normal; orphans: 2; text-align: start; text-indent: 0px; text-transform: none; widows: 2; word-spacing: 0px; -webkit-text-stroke-width: 0px; white-space: normal; background-color: rgb(255, 255, 255); text-decoration-thickness: initial; text-decoration-style: initial; text-decoration-color: initial; display: inline !important; float: none;&quot;&gt;,&lt;span&gt;&amp;nbsp;&lt;/span&gt;&lt;/span&gt;&lt;span class=&quot;sqlstringcolor&quot; style=&quot;box-sizing: inherit; color: brown; font-family: Consolas, Menlo, &amp;quot;courier new&amp;quot;, monospace; font-size: 15px; font-style: normal; font-variant-ligatures: normal; font-variant-caps: normal; font-weight: 400; letter-spacing: normal; orphans: 2; text-align: start; text-indent: 0px; text-transform: none; widows: 2; word-spacing: 0px; -webkit-text-stroke-width: 0px; white-space: normal; background-color: rgb(255, 255, 255); text-decoration-thickness: initial; text-decoration-style: initial; text-decoration-color: initial;&quot;&gt;&#39;4306&#39;&lt;/span&gt;&lt;span style=&quot;color: rgb(0, 0, 0); font-family: Consolas, Menlo, &amp;quot;courier new&amp;quot;, monospace; font-size: 15px; font-style: normal; font-variant-ligatures: normal; font-variant-caps: normal; font-weight: 400; letter-spacing: normal; orphans: 2; text-align: start; text-indent: 0px; text-transform: none; widows: 2; word-spacing: 0px; -webkit-text-stroke-width: 0px; white-space: normal; background-color: rgb(255, 255, 255); text-decoration-thickness: initial; text-decoration-style: initial; text-decoration-color: initial; display: inline !important; float: none;&quot;&gt;,&lt;span&gt;&amp;nbsp;&lt;/span&gt;&lt;/span&gt;&lt;span class=&quot;sqlstringcolor&quot; style=&quot;box-sizing: inherit; color: brown; font-family: Consolas, Menlo, &amp;quot;courier new&amp;quot;, monospace; font-size: 15px; font-style: normal; font-variant-ligatures: normal; font-variant-caps: normal; font-weight: 400; letter-spacing: normal; orphans: 2; text-align: start; text-indent: 0px; text-transform: none; widows: 2; word-spacing: 0px; -webkit-text-stroke-width: 0px; white-space: normal; background-color: rgb(255, 255, 255); text-decoration-thickness: initial; text-decoration-style: initial; text-decoration-color: initial;&quot;&gt;&#39;Norway&#39;&lt;/span&gt;&lt;span style=&quot;color: rgb(0, 0, 0); font-family: Consolas, Menlo, &amp;quot;courier new&amp;quot;, monospace; font-size: 15px; font-style: normal; font-variant-ligatures: normal; font-variant-caps: normal; font-weight: 400; letter-spacing: normal; orphans: 2; text-align: start; text-indent: 0px; text-transform: none; widows: 2; word-spacing: 0px; -webkit-text-stroke-width: 0px; white-space: normal; background-color: rgb(255, 255, 255); text-decoration-thickness: initial; text-decoration-style: initial; text-decoration-color: initial; display: inline !important; float: none;&quot;&gt;),&lt;/span&gt;&lt;br style=&quot;box-sizing: inherit; color: rgb(0, 0, 0); font-family: Consolas, Menlo, &amp;quot;courier new&amp;quot;, monospace; font-size: 15px; font-style: normal; font-variant-ligatures: normal; font-variant-caps: normal; font-weight: 400; letter-spacing: normal; orphans: 2; text-align: start; text-indent: 0px; text-transform: none; widows: 2; word-spacing: 0px; -webkit-text-stroke-width: 0px; white-space: normal; background-color: rgb(255, 255, 255); text-decoration-thickness: initial; text-decoration-style: initial; text-decoration-color: initial;&quot;&gt;&lt;span class=&quot;sqlnumbercolor&quot; style=&quot;box-sizing: inherit; color: red; font-family: Consolas, Menlo, &amp;quot;courier new&amp;quot;, monospace; font-size: 15px; font-style: normal; font-variant-ligatures: normal; font-variant-caps: normal; font-weight: 400; letter-spacing: normal; orphans: 2; text-align: start; text-indent: 0px; text-transform: none; widows: 2; word-spacing: 0px; -webkit-text-stroke-width: 0px; white-space: normal; background-color: rgb(255, 255, 255); text-decoration-thickness: initial; text-decoration-style: initial; text-decoration-color: initial;&quot;&gt;&lt;/span&gt;&lt;span style=&quot;color: rgb(0, 0, 0); font-family: Consolas, Menlo, &amp;quot;courier new&amp;quot;, monospace; font-size: 15px; font-style: normal; font-variant-ligatures: normal; font-variant-caps: normal; font-weight: 400; letter-spacing: normal; orphans: 2; text-align: start; text-indent: 0px; text-transform: none; widows: 2; word-spacing: 0px; -webkit-text-stroke-width: 0px; white-space: normal; background-color: rgb(255, 255, 255); text-decoration-thickness: initial; text-decoration-style: initial; text-decoration-color: initial; display: inline !important; float: none;&quot;&gt;(&lt;/span&gt;&lt;span class=&quot;sqlstringcolor&quot; style=&quot;box-sizing: inherit; color: brown; font-family: Consolas, Menlo, &amp;quot;courier new&amp;quot;, monospace; font-size: 15px; font-style: normal; font-variant-ligatures: normal; font-variant-caps: normal; font-weight: 400; letter-spacing: normal; orphans: 2; text-align: start; text-indent: 0px; text-transform: none; widows: 2; word-spacing: 0px; -webkit-text-stroke-width: 0px; white-space: normal; background-color: rgb(255, 255, 255); text-decoration-thickness: initial; text-decoration-style: initial; text-decoration-color: initial;&quot;&gt;&#39;Tasty Tee&#39;&lt;/span&gt;&lt;span style=&quot;color: rgb(0, 0, 0); font-family: Consolas, Menlo, &amp;quot;courier new&amp;quot;, monospace; font-size: 15px; font-style: normal; font-variant-ligatures: normal; font-variant-caps: normal; font-weight: 400; letter-spacing: normal; orphans: 2; text-align: start; text-indent: 0px; text-transform: none; widows: 2; word-spacing: 0px; -webkit-text-stroke-width: 0px; white-space: normal; background-color: rgb(255, 255, 255); text-decoration-thickness: initial; text-decoration-style: initial; text-decoration-color: initial; display: inline !important; float: none;&quot;&gt;,&lt;span&gt;&amp;nbsp;&lt;/span&gt;&lt;/span&gt;&lt;span class=&quot;sqlstringcolor&quot; style=&quot;box-sizing: inherit; color: brown; font-family: Consolas, Menlo, &amp;quot;courier new&amp;quot;, monospace; font-size: 15px; font-style: normal; font-variant-ligatures: normal; font-variant-caps: normal; font-weight: 400; letter-spacing: normal; orphans: 2; text-align: start; text-indent: 0px; text-transform: none; widows: 2; word-spacing: 0px; -webkit-text-stroke-width: 0px; white-space: normal; background-color: rgb(255, 255, 255); text-decoration-thickness: initial; text-decoration-style: initial; text-decoration-color: initial;&quot;&gt;&#39;Finn Egan&#39;&lt;/span&gt;&lt;span style=&quot;color: rgb(0, 0, 0); font-family: Consolas, Menlo, &amp;quot;courier new&amp;quot;, monospace; font-size: 15px; font-style: normal; font-variant-ligatures: normal; font-variant-caps: normal; font-weight: 400; letter-spacing: normal; orphans: 2; text-align: start; text-indent: 0px; text-transform: none; widows: 2; word-spacing: 0px; -webkit-text-stroke-width: 0px; white-space: normal; background-color: rgb(255, 255, 255); text-decoration-thickness: initial; text-decoration-style: initial; text-decoration-color: initial; display: inline !important; float: none;&quot;&gt;,&lt;span&gt;&amp;nbsp;&lt;/span&gt;&lt;/span&gt;&lt;span class=&quot;sqlstringcolor&quot; style=&quot;box-sizing: inherit; color: brown; font-family: Consolas, Menlo, &amp;quot;courier new&amp;quot;, monospace; font-size: 15px; font-style: normal; font-variant-ligatures: normal; font-variant-caps: normal; font-weight: 400; letter-spacing: normal; orphans: 2; text-align: start; text-indent: 0px; text-transform: none; widows: 2; word-spacing: 0px; -webkit-text-stroke-width: 0px; white-space: normal; background-color: rgb(255, 255, 255); text-decoration-thickness: initial; text-decoration-style: initial; text-decoration-color: initial;&quot;&gt;&#39;Streetroad 19B&#39;&lt;/span&gt;&lt;span style=&quot;color: rgb(0, 0, 0); font-family: Consolas, Menlo, &amp;quot;courier new&amp;quot;, monospace; font-size: 15px; font-style: normal; font-variant-ligatures: normal; font-variant-caps: normal; font-weight: 400; letter-spacing: normal; orphans: 2; text-align: start; text-indent: 0px; text-transform: none; widows: 2; word-spacing: 0px; -webkit-text-stroke-width: 0px; white-space: normal; background-color: rgb(255, 255, 255); text-decoration-thickness: initial; text-decoration-style: initial; text-decoration-color: initial; display: inline !important; float: none;&quot;&gt;,&lt;span&gt;&amp;nbsp;&lt;/span&gt;&lt;/span&gt;&lt;span class=&quot;sqlstringcolor&quot; style=&quot;box-sizing: inherit; color: brown; font-family: Consolas, Menlo, &amp;quot;courier new&amp;quot;, monospace; font-size: 15px; font-style: normal; font-variant-ligatures: normal; font-variant-caps: normal; font-weight: 400; letter-spacing: normal; orphans: 2; text-align: start; text-indent: 0px; text-transform: none; widows: 2; word-spacing: 0px; -webkit-text-stroke-width: 0px; white-space: normal; background-color: rgb(255, 255, 255); text-decoration-thickness: initial; text-decoration-style: initial; text-decoration-color: initial;&quot;&gt;&#39;Liverpool&#39;&lt;/span&gt;&lt;span style=&quot;color: rgb(0, 0, 0); font-family: Consolas, Menlo, &amp;quot;courier new&amp;quot;, monospace; font-size: 15px; font-style: normal; font-variant-ligatures: normal; font-variant-caps: normal; font-weight: 400; letter-spacing: normal; orphans: 2; text-align: start; text-indent: 0px; text-transform: none; widows: 2; word-spacing: 0px; -webkit-text-stroke-width: 0px; white-space: normal; background-color: rgb(255, 255, 255); text-decoration-thickness: initial; text-decoration-style: initial; text-decoration-color: initial; display: inline !important; float: none;&quot;&gt;,&lt;span&gt;&amp;nbsp;&lt;/span&gt;&lt;/span&gt;&lt;span class=&quot;sqlstringcolor&quot; style=&quot;box-sizing: inherit; color: brown; font-family: Consolas, Menlo, &amp;quot;courier new&amp;quot;, monospace; font-size: 15px; font-style: normal; font-variant-ligatures: normal; font-variant-caps: normal; font-weight: 400; letter-spacing: normal; orphans: 2; text-align: start; text-indent: 0px; text-transform: none; widows: 2; word-spacing: 0px; -webkit-text-stroke-width: 0px; white-space: normal; background-color: rgb(255, 255, 255); text-decoration-thickness: initial; text-decoration-style: initial; text-decoration-color: initial;&quot;&gt;&#39;L1 0AA&#39;&lt;/span&gt;&lt;span style=&quot;color: rgb(0, 0, 0); font-family: Consolas, Menlo, &amp;quot;courier new&amp;quot;, monospace; font-size: 15px; font-style: normal; font-variant-ligatures: normal; font-variant-caps: normal; font-weight: 400; letter-spacing: normal; orphans: 2; text-align: start; text-indent: 0px; text-transform: none; widows: 2; word-spacing: 0px; -webkit-text-stroke-width: 0px; white-space: normal; background-color: rgb(255, 255, 255); text-decoration-thickness: initial; text-decoration-style: initial; text-decoration-color: initial; display: inline !important; float: none;&quot;&gt;,&lt;span&gt;&amp;nbsp;&lt;/span&gt;&lt;/span&gt;&lt;span class=&quot;sqlstringcolor&quot; style=&quot;box-sizing: inherit; color: brown; font-family: Consolas, Menlo, &amp;quot;courier new&amp;quot;, monospace; font-size: 15px; font-style: normal; font-variant-ligatures: normal; font-variant-caps: normal; font-weight: 400; letter-spacing: normal; orphans: 2; text-align: start; text-indent: 0px; text-transform: none; widows: 2; word-spacing: 0px; -webkit-text-stroke-width: 0px; white-space: normal; background-color: rgb(255, 255, 255); text-decoration-thickness: initial; text-decoration-style: initial; text-decoration-color: initial;&quot;&gt;&#39;UK&#39;&lt;/span&gt;&lt;span style=&quot;color: rgb(0, 0, 0); font-family: Consolas, Menlo, &amp;quot;courier new&amp;quot;, monospace; font-size: 15px; font-style: normal; font-variant-ligatures: normal; font-variant-caps: normal; font-weight: 400; letter-spacing: normal; orphans: 2; text-align: start; text-indent: 0px; text-transform: none; widows: 2; word-spacing: 0px; -webkit-text-stroke-width: 0px; white-space: normal; background-color: rgb(255, 255, 255); text-decoration-thickness: initial; text-decoration-style: initial; text-decoration-color: initial; display: inline !important; float: none;&quot;&gt;);&lt;/span&gt;" style="text;whiteSpace=wrap;html=1;" vertex="1" parent="1">
          <mxGeometry x="130" y="210" width="560" height="190" as="geometry" />
        </mxCell>
      </root>
    </mxGraphModel>
  </diagram>
</mxfile>
